<svg xmlns="http://www.w3.org/2000/svg" xmlns:xlink="http://www.w3.org/1999/xlink" version="1.1" style="enable-background:new 0 0 511.996 511.996;" xml:space="preserve" width="511.996" height="511.996"><rect id="backgroundrect" width="100%" height="100%" x="0" y="0" fill="none" stroke="none"/>
















<g class="currentLayer" style=""><title>Layer 1</title><g id="svg_1" class="selected" fill="#ffffff" fill-opacity="1">
	<g id="svg_2" fill="#ffffff" fill-opacity="1">
		<g id="svg_3" fill="#ffffff" fill-opacity="1">
			<path d="M349.85,62.196c-10.797-4.717-23.373,0.212-28.09,11.009c-4.717,10.797,0.212,23.373,11.009,28.09     c69.412,30.324,115.228,98.977,115.228,176.035c0,106.034-85.972,192-192,192c-106.042,0-192-85.958-192-192     c0-77.041,45.8-145.694,115.192-176.038c10.795-4.72,15.72-17.298,10.999-28.093c-4.72-10.795-17.298-15.72-28.093-10.999     C77.306,99.275,21.331,183.181,21.331,277.329c0,129.606,105.061,234.667,234.667,234.667     c129.592,0,234.667-105.068,234.667-234.667C490.665,183.159,434.667,99.249,349.85,62.196z" id="svg_4" fill="#ffffff" fill-opacity="1"/>
			<path d="M255.989,234.667c11.782,0,21.333-9.551,21.333-21.333v-192C277.323,9.551,267.771,0,255.989,0     c-11.782,0-21.333,9.551-21.333,21.333v192C234.656,225.115,244.207,234.667,255.989,234.667z" id="svg_5" fill="#ffffff" fill-opacity="1"/>
		</g>
	</g>
</g><g id="svg_6">
</g><g id="svg_7">
</g><g id="svg_8">
</g><g id="svg_9">
</g><g id="svg_10">
</g><g id="svg_11">
</g><g id="svg_12">
</g><g id="svg_13">
</g><g id="svg_14">
</g><g id="svg_15">
</g><g id="svg_16">
</g><g id="svg_17">
</g><g id="svg_18">
</g><g id="svg_19">
</g><g id="svg_20">
</g></g></svg>